# Blender v3.0.0 OBJ File: ''
# www.blender.org
mtllib muc.mtl
o Cube
v -1.179207 1.391962 -1.577724
v -0.592864 1.391962 -2.257025
v 0.592864 1.391962 2.257025
v 1.179207 1.391962 1.577724
v 1.179207 1.391962 -1.577724
v 0.592864 1.391962 -2.257025
v 0.578671 0.369474 -1.901529
v 0.247988 3.161861 0.569635
v 1.150978 0.369474 -1.329222
v 0.628410 -1.082842 -0.628410
v 0.628410 -0.461344 -1.249908
v 1.249908 -0.461344 -0.628410
v 1.150978 0.369473 1.329222
v 0.578671 2.589554 1.901529
v 0.578671 0.369473 1.901528
v 1.249908 -0.461344 0.628410
v 0.628410 -0.461344 1.249908
v 0.628410 -1.082842 0.628410
v -0.578671 0.369474 -1.901529
v -1.150978 0.369474 -1.329222
v -0.578671 2.589554 -1.901528
v -1.249908 -0.461344 -0.628410
v -0.628410 -0.461344 -1.249908
v -0.628410 -1.082842 -0.628410
v -1.150978 0.369473 1.329222
v -0.578671 0.369473 1.901528
v -1.150978 2.589554 -1.329222
v -0.628410 -1.082842 0.628410
v -0.628410 -0.461344 1.249908
v -1.249908 -0.461344 0.628410
v -1.179207 1.391962 1.577724
v -0.592864 1.391962 2.257025
v 1.150978 2.589554 1.329222
v 1.150978 2.589554 -1.329222
v 0.247988 3.161861 -0.569635
v 0.578671 2.589554 -1.901528
v -0.247988 3.161861 -0.569635
v -1.150978 2.589554 1.329222
v -0.578671 2.589554 1.901529
v -0.247988 3.161861 0.569635
v 1.179207 1.391962 0.344732
v 1.179207 1.391962 -0.224906
v 1.150978 2.589554 0.362907
v 1.150978 2.589554 -0.170112
v 1.150978 0.369473 0.317544
v 1.166466 1.932478 0.793858
v 1.173416 1.637616 0.793859
v 1.173149 1.648957 0.351566
v 1.172882 1.660298 -0.215476
v 1.172882 1.660298 -0.578382
v 1.164595 2.011864 -0.567042
v 1.164862 2.000523 -0.181453
v 1.164595 2.011864 0.328884
v 1.150978 0.369473 -0.260839
v 1.599560 1.383928 0.344732
v 1.599560 1.383928 -0.224906
v 1.571331 2.581520 0.362907
v 1.571331 2.581520 -0.170112
v 1.571331 0.361439 0.317544
v 1.586819 1.924444 0.793858
v 1.593769 1.629582 0.793858
v 1.593502 1.640923 0.351566
v 1.593235 1.652264 -0.215476
v 1.593235 1.652264 -0.578382
v 1.584948 2.003830 -0.567042
v 1.585215 1.992489 -0.181453
v 1.584948 2.003830 0.328884
v 1.571331 0.361439 -0.260839
vt 0.187154 0.562154
vt 0.312846 0.562154
vt 0.312846 0.687846
vt 0.187154 0.687846
vt 0.437154 0.062154
vt 0.562846 0.062154
vt 0.562846 0.187846
vt 0.437154 0.187846
vt 0.437154 0.812154
vt 0.562846 0.812154
vt 0.562846 0.937846
vt 0.437154 0.937846
vt 0.687154 0.562154
vt 0.812846 0.562154
vt 0.812846 0.687846
vt 0.687154 0.687846
vt 0.437154 0.562154
vt 0.562846 0.562154
vt 0.562846 0.612668
vt 0.562846 0.640013
vt 0.562846 0.687846
vt 0.437154 0.687846
vt 0.562846 0.437846
vt 0.562846 0.437846
vt 0.562846 0.562154
vt 0.312846 0.500000
vt 0.375000 0.562154
vt 0.562846 0.312154
vt 0.562846 0.187846
vt 0.562846 0.312154
vt 0.437154 0.750000
vt 0.375000 0.812154
vt 0.375000 0.812154
vt 0.562846 0.812154
vt 0.562846 0.937846
vt 0.437154 0.250000
vt 0.375000 0.187846
vt 0.562846 0.687846
vt 0.187154 0.750000
vt 0.125000 0.687846
vt 0.125000 0.562154
vt 0.187154 0.500000
vt 0.437154 0.437846
vt 0.437154 0.000000
vt 0.562846 0.000000
vt 0.437154 0.312154
vt 0.562846 0.638732
vt 0.562846 0.000000
vt 0.562846 0.062154
vt 0.312846 0.750000
vt 0.562846 0.312154
vt 0.562846 0.437846
vt 0.562846 0.562154
vt 0.562846 0.687846
vt 0.562846 0.812154
vt 0.562846 0.000000
vt 0.562846 0.062154
vt 0.562846 0.187846
vt 0.562846 0.937846
vt 0.562846 0.639485
vt 0.562846 0.657631
vt 0.562846 0.659148
vt 0.562846 0.639343
vt 0.562846 0.642158
vt 0.625000 0.437846
vt 0.562846 0.500000
vt 0.625000 0.687846
vt 0.562846 0.750000
vt 0.562846 0.250000
vt 0.562846 0.250000
vt 0.625000 0.187846
vt 0.625000 0.062154
vt 0.625000 0.812154
vt 0.625000 0.937846
vt 0.562846 0.616957
vt 0.625000 0.312154
vt 0.562846 0.639485
vt 0.562846 0.657631
vt 0.562846 0.617100
vt 0.562846 0.600279
vt 0.562846 0.601138
vt 0.562846 0.616107
vt 0.562846 0.616041
vt 0.562846 0.639343
vt 0.562846 0.642158
vt 0.562846 0.659148
vt 0.562846 0.638732
vt 0.562846 0.616041
vt 0.562846 0.616107
vt 0.562846 0.601138
vt 0.562846 0.600279
vt 0.562846 0.617100
vt 0.562846 0.616957
vt 0.562846 0.640013
vt 0.562846 0.612668
vn 0.0000 -1.0000 0.0000
vn -0.9930 0.1182 0.0000
vn 0.0000 -0.6171 0.7869
vn 0.0000 1.0000 0.0000
vn 0.9930 0.1182 0.0000
vn 0.7173 -0.2110 -0.6640
vn 0.5774 -0.5774 -0.5774
vn -0.7173 -0.2110 -0.6640
vn 0.5774 -0.5774 0.5774
vn 0.0000 -0.3284 0.9445
vn -0.5774 -0.5774 -0.5774
vn 0.7173 -0.2110 0.6640
vn -0.5774 -0.5774 0.5774
vn -0.7071 -0.7071 0.0000
vn 0.0000 -0.7071 -0.7071
vn 0.6293 -0.4559 -0.6293
vn -0.6293 -0.4559 0.6293
vn 0.6293 -0.4559 0.6293
vn -0.6293 -0.4559 -0.6293
vn 0.9996 -0.0276 0.0000
vn -0.7173 -0.2110 0.6640
vn 0.0000 -0.7071 0.7071
vn -0.9996 -0.0276 -0.0000
vn 0.0000 -0.3284 -0.9445
vn 0.7071 -0.7071 0.0000
vn 0.0000 -0.6171 -0.7869
vn 0.0000 0.2846 -0.9587
vn 0.7217 0.1813 -0.6681
vn 0.7217 0.1813 0.6681
vn -0.7217 0.1813 0.6681
vn -0.7217 0.1813 -0.6681
vn 0.0000 0.2846 0.9587
vn 0.9997 0.0236 -0.0000
vn -0.9997 0.0236 0.0000
vn 0.3095 0.8991 -0.3095
vn 0.3095 0.8991 0.3095
vn -0.3095 0.8991 -0.3095
vn -0.3095 0.8991 0.3095
vn 0.0000 0.9188 0.3948
vn 0.5353 0.8446 0.0000
vn -0.5353 0.8446 0.0000
vn 0.0000 0.9188 -0.3948
vn -0.0191 -0.9995 -0.0256
vn -0.0011 -0.0588 0.9983
vn 0.0000 0.0000 1.0000
vn 0.0188 0.9856 0.1682
vn -0.0005 -0.0266 0.9996
vn 0.0007 0.0351 -0.9994
vn -0.0191 -0.9998 0.0000
vn 0.0006 0.0323 -0.9995
vn 0.0191 0.9998 0.0000
vn 0.0191 0.9994 0.0294
vn 0.0004 0.0193 -0.9998
usemtl Material
s off
f 24/1/1 10/2/1 18/3/1 28/4/1
f 30/5/2 25/6/2 20/7/2 22/8/2
f 17/9/3 15/10/3 26/11/3 29/12/3
f 35/13/4 37/14/4 40/15/4 8/16/4
f 12/17/5 9/18/5 54/19/5 45/20/5 13/21/5 16/22/5
f 9/18/6 7/23/6 6/24/6 5/25/6
f 10/2/7 11/26/7 12/27/7
f 19/28/8 20/7/8 1/29/8 2/30/8
f 16/31/9 17/32/9 18/33/9
f 26/11/10 15/10/10 3/34/10 32/35/10
f 22/8/11 23/36/11 24/37/11
f 15/10/12 13/21/12 4/38/12 3/34/12
f 28/4/13 29/39/13 30/40/13
f 24/1/14 28/4/14 30/40/14 22/41/14
f 10/2/15 24/1/15 23/42/15 11/26/15
f 9/18/16 12/17/16 11/43/16 7/23/16
f 29/44/17 26/45/17 25/6/17 30/5/17
f 15/10/18 17/9/18 16/22/18 13/21/18
f 19/28/19 23/46/19 22/8/19 20/7/19
f 13/21/20 45/20/20 41/47/20 4/38/20
f 25/6/21 26/45/21 32/48/21 31/49/21
f 28/4/22 18/3/22 17/50/22 29/39/22
f 20/7/23 25/6/23 31/49/23 1/29/23
f 7/23/24 19/28/24 2/30/24 6/24/24
f 18/3/25 10/2/25 12/17/25 16/22/25
f 23/46/26 19/28/26 7/23/26 11/43/26
f 6/24/27 2/30/27 21/51/27 36/52/27
f 5/25/28 6/24/28 36/52/28 34/53/28
f 3/34/29 4/38/29 33/54/29 14/55/29
f 31/49/30 32/48/30 39/56/30 38/57/30
f 2/30/31 1/29/31 27/58/31 21/51/31
f 32/35/32 3/34/32 14/55/32 39/59/32
f 4/38/33 41/47/33 48/60/33 47/61/33 46/62/33 53/63/33 43/64/33 33/54/33
f 1/29/34 31/49/34 38/57/34 27/58/34
f 36/52/35 35/65/35 34/66/35
f 33/54/36 8/67/36 14/68/36
f 21/69/37 27/70/37 37/71/37
f 38/57/38 39/56/38 40/72/38
f 8/73/39 40/74/39 39/59/39 14/55/39
f 35/13/40 8/16/40 33/54/40 43/64/40 44/75/40 34/53/40
f 40/72/41 37/71/41 27/58/41 38/57/41
f 37/76/42 35/65/42 36/52/42 21/51/42
f 47/61/43 48/60/43 62/77/43 61/78/43
f 44/75/33 52/79/33 51/80/33 50/81/33 49/82/33 42/83/33 5/25/33 34/53/33
f 43/64/44 53/63/44 67/84/44 57/85/44
f 42/83/20 54/19/20 9/18/20 5/25/20
f 46/62/45 47/61/45 61/78/45 60/86/45
f 57/85/33 67/84/33 60/86/33 61/78/33 62/77/33 55/87/33 56/88/33 63/89/33 64/90/33 65/91/33 66/92/33 58/93/33
f 55/87/20 59/94/20 56/88/20
f 68/95/20 56/88/20 59/94/20
f 53/63/46 46/62/46 60/86/46 67/84/46
f 48/60/47 41/47/47 55/87/47 62/77/47
f 41/47/47 45/20/47 59/94/47 55/87/47
f 42/83/48 49/82/48 63/89/48 56/88/48
f 49/82/49 50/81/49 64/90/49 63/89/49
f 45/20/49 54/19/49 68/95/49 59/94/49
f 50/81/50 51/80/50 65/91/50 64/90/50
f 44/75/51 43/64/51 57/85/51 58/93/51
f 54/19/48 42/83/48 56/88/48 68/95/48
f 51/80/52 52/79/52 66/92/52 65/91/52
f 52/79/53 44/75/53 58/93/53 66/92/53
